<svg xmlns="http://www.w3.org/2000/svg" width="124" height="50" viewBox="0 0 124 50"><defs><style>.a{fill:#fff;}</style></defs><rect class="a" width="36.159" height="36.159" transform="translate(43.974)"/><g transform="translate(54.321 9.858)"><path d="M6.5.052H8.882L2.382,16.52H0Z" transform="translate(0 -0.052)"/><path d="M2.382.052H0L6.5,16.52H8.882Z" transform="translate(6.755 -0.052)"/></g><path class="a" d="M12.391-41.795h1.987a5.556,5.556,0,0,0-.5-2.241,4.366,4.366,0,0,0-1.236-1.556,5.1,5.1,0,0,0-1.821-.905,8.422,8.422,0,0,0-2.252-.287,8.086,8.086,0,0,0-2.108.276,5.8,5.8,0,0,0-1.832.839,4.246,4.246,0,0,0-1.291,1.435,4.176,4.176,0,0,0-.486,2.064,3.447,3.447,0,0,0,.43,1.8A3.49,3.49,0,0,0,4.432-39.2a6.672,6.672,0,0,0,1.623.729q.905.276,1.843.486t1.843.408a8.4,8.4,0,0,1,1.623.519,3.164,3.164,0,0,1,1.148.828,1.978,1.978,0,0,1,.43,1.325,2.578,2.578,0,0,1-.353,1.413,2.571,2.571,0,0,1-.927.872,4.2,4.2,0,0,1-1.291.453,7.83,7.83,0,0,1-1.424.132,6.738,6.738,0,0,1-1.722-.221,4.285,4.285,0,0,1-1.468-.684,3.513,3.513,0,0,1-1.015-1.181,3.56,3.56,0,0,1-.386-1.711H2.368a5.543,5.543,0,0,0,.519,2.484A4.762,4.762,0,0,0,4.3-31.629a6.188,6.188,0,0,0,2.075,1,9.242,9.242,0,0,0,2.506.331,9.583,9.583,0,0,0,2.174-.254,6.293,6.293,0,0,0,1.976-.817,4.633,4.633,0,0,0,1.446-1.457,3.958,3.958,0,0,0,.563-2.152,3.953,3.953,0,0,0-.43-1.943,3.835,3.835,0,0,0-1.148-1.28A6.08,6.08,0,0,0,11.839-39q-.905-.3-1.843-.519t-1.843-.408A9.653,9.653,0,0,1,6.529-40.4a3.192,3.192,0,0,1-1.148-.74,1.643,1.643,0,0,1-.43-1.181,2.56,2.56,0,0,1,.3-1.291,2.318,2.318,0,0,1,.795-.828,3.459,3.459,0,0,1,1.137-.442,6.412,6.412,0,0,1,1.3-.132,4.45,4.45,0,0,1,2.682.762A3.284,3.284,0,0,1,12.391-41.795ZM26.3-38.859v-5.784H30.4a3.857,3.857,0,0,1,2.616.74,2.736,2.736,0,0,1,.828,2.152,2.771,2.771,0,0,1-.828,2.163,3.745,3.745,0,0,1-2.616.729Zm-2.1-7.55v15.762h2.1v-6.446h4.813a4.8,4.8,0,0,0,3.609-1.214,4.679,4.679,0,0,0,1.225-3.444,4.641,4.641,0,0,0-1.225-3.433,4.894,4.894,0,0,0-3.609-1.225Z" transform="translate(-2.368 65.554)"/><path class="a" d="M14.607-41.662h2.1a5.865,5.865,0,0,0-.751-2.219,5.459,5.459,0,0,0-1.435-1.6,6.29,6.29,0,0,0-1.965-.971,8.1,8.1,0,0,0-2.34-.331A7.543,7.543,0,0,0,7-46.133a6.638,6.638,0,0,0-2.34,1.777,7.794,7.794,0,0,0-1.424,2.638,10.516,10.516,0,0,0-.486,3.234A11.114,11.114,0,0,0,3.2-35.26a7.444,7.444,0,0,0,1.358,2.6,6.287,6.287,0,0,0,2.274,1.733,7.6,7.6,0,0,0,3.2.629,6.643,6.643,0,0,0,4.768-1.656,7.16,7.16,0,0,0,2.053-4.636h-2.1a6.015,6.015,0,0,1-.4,1.81,4.369,4.369,0,0,1-.916,1.446,4.173,4.173,0,0,1-1.391.949,4.679,4.679,0,0,1-1.843.342,5.188,5.188,0,0,1-2.428-.53,4.743,4.743,0,0,1-1.667-1.424,6.1,6.1,0,0,1-.96-2.1,10.214,10.214,0,0,1-.309-2.55,9.131,9.131,0,0,1,.309-2.384,6.146,6.146,0,0,1,.96-2.042,4.771,4.771,0,0,1,1.656-1.424,5.121,5.121,0,0,1,2.417-.53,4.872,4.872,0,0,1,2.859.839A3.9,3.9,0,0,1,14.607-41.662Zm11.48-4.746v15.762h10.95v-1.766H28.184v-5.453h8.19v-1.766h-8.19v-5.011H36.97v-1.766Z" transform="translate(86.964 65.554)"/><path class="a" d="M1.872-17.4v5.911H5.717v-.662H2.644V-17.4Zm15.275,3.469.984-2.757h.016l.967,2.757Zm.577-3.469-2.26,5.911h.789l.65-1.78h2.455l.634,1.78h.854L18.578-17.4ZM35.8-13.628V-17.4h-.772v3.775a1.7,1.7,0,0,1-.386,1.2,1.474,1.474,0,0,1-1.126.41,1.629,1.629,0,0,1-1.2-.41,1.621,1.621,0,0,1-.415-1.2V-17.4h-.772v3.775a2.16,2.16,0,0,0,.63,1.726,2.6,2.6,0,0,0,1.752.542,2.351,2.351,0,0,0,1.691-.567A2.248,2.248,0,0,0,35.8-13.628ZM46.788-17.4v5.911h.732v-4.744h.016l3.032,4.744h.845V-17.4h-.732v4.793h-.016L47.609-17.4ZM66.5-15.623h.772A2.227,2.227,0,0,0,67-16.455a2.035,2.035,0,0,0-.528-.6,2.3,2.3,0,0,0-.724-.364,2.934,2.934,0,0,0-.862-.124A2.735,2.735,0,0,0,63.7-17.3a2.45,2.45,0,0,0-.862.666,2.94,2.94,0,0,0-.524.989,4.01,4.01,0,0,0-.179,1.213,4.239,4.239,0,0,0,.167,1.209,2.81,2.81,0,0,0,.5.977,2.32,2.32,0,0,0,.837.65,2.755,2.755,0,0,0,1.179.236,2.42,2.42,0,0,0,1.756-.621,2.707,2.707,0,0,0,.756-1.738h-.772a2.291,2.291,0,0,1-.146.679,1.643,1.643,0,0,1-.337.542,1.536,1.536,0,0,1-.512.356,1.7,1.7,0,0,1-.679.128,1.882,1.882,0,0,1-.894-.2,1.756,1.756,0,0,1-.614-.534,2.307,2.307,0,0,1-.354-.786,3.9,3.9,0,0,1-.114-.956,3.483,3.483,0,0,1,.114-.894,2.323,2.323,0,0,1,.354-.766,1.766,1.766,0,0,1,.61-.534,1.858,1.858,0,0,1,.89-.2,1.771,1.771,0,0,1,1.053.315A1.466,1.466,0,0,1,66.5-15.623ZM78.046-17.4v5.911h.772V-14.2h3.057v2.707h.772V-17.4h-.772v2.542H78.818V-17.4Z" transform="translate(20.033 61.36)"/></svg>